Malèna (2000)


IMDB link: http://www.imdb.com/title/tt2011971/

Subtitles included: English


Video
ID                             : 1
Format                         : AVC
Format profile                 : High@L3.1
Format settings, CABAC         : Yes
Format settings, ReFrames      : 4 frames
Duration                       : 1h 32mn
Bit rate                       : 1 644 Kbps
Maximum bit rate               : 9 507 Kbps
Width                          : 1 280 pixels
Height                         : 544 pixels
Display aspect ratio           : 2.35:1
Frame rate mode                : Constant
Frame rate                     : 23.976 fps
Color space                    : YUV
Chroma subsampling             : 4:2:0
Bit depth                      : 8 bits
Scan type                      : Progressive
Bits/(Pixel*Frame)             : 0.098
Stream size                    : 1.06 GiB (83%)
Writing library                : x264 core 122 r2184 5c85e0a
Encoding settings              : cabac=1 / ref=4 / deblock=1:-1:-1 / analyse=0x3:0x113 / me=umh / subme=9 / psy=1 / psy_rd=1.00:0.45 / mixed_ref=1 / me_range=24 / chroma_me=1 / trellis=1 / 8x8dct=1 / cqm=0 / deadzone=21,11 / fast_pskip=1 / chroma_qp_offset=-4 / threads=3 / sliced_threads=0 / nr=0 / decimate=1 / interlaced=0 / bluray_compat=0 / constrained_intra=0 / bframes=5 / b_pyramid=2 / b_adapt=2 / b_bias=0 / direct=3 / weightb=1 / open_gop=0 / weightp=2 / keyint=250 / keyint_min=23 / scenecut=40 / intra_refresh=0 / rc_lookahead=50 / rc=crf / mbtree=1 / crf=22.0 / qcomp=0.60 / qpmin=0 / qpmax=69 / qpstep=4 / ip_ratio=1.40 / aq=2:1.00


Audio
Format                         : AAC
Format/Info                    : Advanced Audio Codec
Format profile                 : LC
Codec ID                       : 40
Duration                       : 1h 32mn
Bit rate mode                  : Variable
Bit rate                       : 340 Kbps
Maximum bit rate               : 380 Kbps
Channel(s)                     : 6 channels
Channel positions              : Front: L C R, Side: L R, LFE
Sampling rate                  : 48.0 KHz
Compression mode               : Lossy
Stream size                    : 224 MiB (17%)
Language                       : Italian

SOURCE: Malena.2000.720p.BluRay.x264-SONiDO
I fixed some sound sync issues.

Screens: 
http://img823.imageshack.us/img823/7084/thumbscu.jpg
 
http://img577.imageshack.us/img577/7954/malena720mp4snapshot012.png
 
http://img526.imageshack.us/img526/7997/malena720mp4snapshot002.png
 
http://img99.imageshack.us/img99/7997/malena720mp4snapshot002.png